<?xml version="1.0" encoding="UTF-8"?>
<svg xmlns="http://www.w3.org/2000/svg"
     xmlns:xlink="http://www.w3.org/1999/xlink"
     version="1.2"
     width="180mm" height="80mm" viewBox="0 0 180 80"
     stroke="none"
     fill="#000000"
     stroke-width="0.3"
     font-size="3.88"
>
<defs>
  <marker id="arrow" markerWidth="15" markerHeight="7" refX="5" refY="3.5" orient="auto" markerUnits="strokeWidth">
    <path d="M0,0 L15,3.5 L0,7 z" stroke="context-stroke" fill="context-stroke"/>
  </marker>
</defs>
<g font-family="Prociono" font-size="5.64" id="img-4ae84c3f-1">
  <g transform="translate(52.2,9.6)">
    <g class="primitive">
      <text dy="-0em">...</text>
    </g>
  </g>
</g>
<g fill-opacity="0.5" fill="#AAAAAA" id="img-4ae84c3f-2">
  <g transform="translate(52.62,20)">
    <path d="M-16.62,-8 L16.38,-8 13.26,8 -13.02,8  z" class="primitive"/>
  </g>
</g>
<g fill-opacity="0.5" fill="#AAAAAA" id="img-4ae84c3f-3">
  <g transform="translate(60.43,46)">
    <path d="M-9.26,18 L11.31,18 18.41,-18 -20.47,-18  z" class="primitive"/>
  </g>
</g>
<g stroke="#000000" stroke-width="0.3" marker-end="url(#arrow)" id="img-4ae84c3f-4">
  <g transform="translate(30,64)">
    <path fill="none" d="M-17.57,0 L17.57,0 " class="primitive"/>
  </g>
  <g transform="translate(60.86,64)">
    <path fill="none" d="M-7.29,0 L7.29,0 " class="primitive"/>
  </g>
  <g transform="translate(75.26,64)">
    <path fill="none" d="M-1.11,0 L1.11,0 " class="primitive"/>
  </g>
</g>
<g transform="translate(10.03,64)">
  <circle cx="0" cy="0" r="1.8" class="primitive"/>
</g>
<g transform="translate(51.17,64)">
  <circle cx="0" cy="0" r="1.8" class="primitive"/>
</g>
<g transform="translate(71.74,64)">
  <circle cx="0" cy="0" r="1.8" class="primitive"/>
</g>
<g fill="#FFFFFF" stroke="#000000" id="img-4ae84c3f-5">
  <g transform="translate(79.97,64)">
    <circle cx="0" cy="0" r="1.8" class="primitive"/>
  </g>
</g>
<g font-family="Prociono" font-size="4.23" id="img-4ae84c3f-6">
  <g transform="translate(30.6,58)">
    <g class="primitive">
      <text text-anchor="middle" dy="0.35em">η(t, 3)</text>
    </g>
  </g>
  <g transform="translate(61.46,58)">
    <g class="primitive">
      <text text-anchor="middle" dy="0.35em">η(t, 2)</text>
    </g>
  </g>
  <g transform="translate(75.86,58)">
    <g class="primitive">
      <text text-anchor="middle" dy="0.35em">η(t, 1)</text>
    </g>
  </g>
</g>
<g stroke="#000000" stroke-width="0.3" marker-end="url(#arrow)" id="img-4ae84c3f-7">
  <g transform="translate(52.56,28)">
    <path fill="none" d="M-11.16,0 L11.16,0 " class="primitive"/>
  </g>
  <g transform="translate(72,28)">
    <path fill="none" d="M-4.68,0 L4.68,0 " class="primitive"/>
  </g>
</g>
<g transform="translate(39.96,28)">
  <circle cx="0" cy="0" r="1.08" class="primitive"/>
</g>
<g transform="translate(65.88,28)">
  <circle cx="0" cy="0" r="1.08" class="primitive"/>
</g>
<g fill="#FFFFFF" stroke="#000000" id="img-4ae84c3f-8">
  <g transform="translate(78.84,28)">
    <circle cx="0" cy="0" r="1.08" class="primitive"/>
  </g>
</g>
<g font-family="Prociono" font-size="4.23" id="img-4ae84c3f-9">
  <g transform="translate(52.92,24.4)">
    <g class="primitive">
      <text text-anchor="middle" dy="0.35em">η(t-1, 2)</text>
    </g>
  </g>
  <g transform="translate(72.36,24.4)">
    <g class="primitive">
      <text text-anchor="middle" dy="0.35em">η(t-1, 1)</text>
    </g>
  </g>
</g>
<g font-family="Prociono" font-size="5.64" id="img-4ae84c3f-10">
  <g transform="translate(135,5.6)">
    <g class="primitive">
      <text dy="-0em">...</text>
    </g>
  </g>
</g>
<g fill-opacity="0.5" fill="#AAAAAA" id="img-4ae84c3f-11">
  <g transform="translate(135,16)">
    <path d="M-11.25,-8 L11.25,-8 6.75,8 -6.75,8  z" class="primitive"/>
  </g>
</g>
<g fill-opacity="0.5" fill="#AAAAAA" id="img-4ae84c3f-12">
  <g transform="translate(135,42)">
    <path d="M-11.25,18 L11.25,18 20.25,-18 -20.25,-18  z" class="primitive"/>
  </g>
</g>
<g stroke="#000000" stroke-width="0.3" marker-end="url(#arrow)" id="img-4ae84c3f-13">
  <g transform="translate(112.5,50)">
    <path fill="none" d="M-9,6 C0,-6 0,-6 9,6" class="primitive"/>
  </g>
  <g transform="translate(135,50)">
    <path fill="none" d="M-9,6 C0,-6 0,-6 9,6" class="primitive"/>
  </g>
  <g transform="translate(157.5,50)">
    <path fill="none" d="M-9,6 C0,-6 0,-6 9,6" class="primitive"/>
  </g>
</g>
<g stroke="#000000" stroke-width="0.3" marker-end="url(#arrow)" id="img-4ae84c3f-14">
  <g transform="translate(112.5,70)">
    <path fill="none" d="M9,-6 C0,6 0,6 -9,-6" class="primitive"/>
  </g>
  <g transform="translate(135,70)">
    <path fill="none" d="M9,-6 C0,6 0,6 -9,-6" class="primitive"/>
  </g>
</g>
<g fill="#FFFFFF" stroke="#000000" id="img-4ae84c3f-15">
  <g transform="translate(123.75,60)">
    <circle cx="0" cy="0" r="1.8" class="primitive"/>
  </g>
  <g transform="translate(146.25,60)">
    <circle cx="0" cy="0" r="1.8" class="primitive"/>
  </g>
</g>
<g transform="translate(101.25,60)">
  <circle cx="0" cy="0" r="1.8" class="primitive"/>
</g>
<g transform="translate(168.75,60)">
  <circle cx="0" cy="0" r="1.8" class="primitive"/>
</g>
<g font-family="Prociono" font-size="4.94" id="img-4ae84c3f-16">
  <g transform="translate(112.5,44)">
    <g class="primitive">
      <text text-anchor="middle" dy="0.35em">P2</text>
    </g>
  </g>
  <g transform="translate(135,44)">
    <g class="primitive">
      <text text-anchor="middle" dy="0.35em">P2</text>
    </g>
  </g>
  <g transform="translate(157.5,44)">
    <g class="primitive">
      <text text-anchor="middle" dy="0.35em">P2</text>
    </g>
  </g>
  <g transform="translate(112.5,76)">
    <g class="primitive">
      <text text-anchor="middle" dy="0.35em">Q2</text>
    </g>
  </g>
  <g transform="translate(135,76)">
    <g class="primitive">
      <text text-anchor="middle" dy="0.35em">Q2</text>
    </g>
  </g>
</g>
<g stroke="#000000" stroke-width="0.3" marker-end="url(#arrow)" id="img-4ae84c3f-17">
  <g transform="translate(121.5,18)">
    <path fill="none" d="M-5.4,3.6 C0,-3.6 0,-3.6 5.4,3.6" class="primitive"/>
  </g>
  <g transform="translate(135,18)">
    <path fill="none" d="M-5.4,3.6 C0,-3.6 0,-3.6 5.4,3.6" class="primitive"/>
  </g>
  <g transform="translate(148.5,18)">
    <path fill="none" d="M-5.4,3.6 C0,-3.6 0,-3.6 5.4,3.6" class="primitive"/>
  </g>
</g>
<g stroke="#000000" stroke-width="0.3" marker-end="url(#arrow)" id="img-4ae84c3f-18">
  <g transform="translate(121.5,30)">
    <path fill="none" d="M5.4,-3.6 C0,3.6 0,3.6 -5.4,-3.6" class="primitive"/>
  </g>
  <g transform="translate(135,30)">
    <path fill="none" d="M5.4,-3.6 C0,3.6 0,3.6 -5.4,-3.6" class="primitive"/>
  </g>
</g>
<g transform="translate(114.75,24)">
  <circle cx="0" cy="0" r="1.08" class="primitive"/>
</g>
<g transform="translate(155.25,24)">
  <circle cx="0" cy="0" r="1.08" class="primitive"/>
</g>
<g fill="#FFFFFF" stroke="#000000" id="img-4ae84c3f-19">
  <g transform="translate(128.25,24)">
    <circle cx="0" cy="0" r="1.08" class="primitive"/>
  </g>
  <g transform="translate(141.75,24)">
    <circle cx="0" cy="0" r="1.08" class="primitive"/>
  </g>
</g>
<g font-family="Prociono" font-size="4.94" id="img-4ae84c3f-20">
  <g transform="translate(121.5,14.4)">
    <g class="primitive">
      <text text-anchor="middle" dy="0.35em">P1</text>
    </g>
  </g>
  <g transform="translate(135,14.4)">
    <g class="primitive">
      <text text-anchor="middle" dy="0.35em">P1</text>
    </g>
  </g>
  <g transform="translate(148.5,14.4)">
    <g class="primitive">
      <text text-anchor="middle" dy="0.35em">P1</text>
    </g>
  </g>
  <g transform="translate(121.5,33.6)">
    <g class="primitive">
      <text text-anchor="middle" dy="0.35em">Q1</text>
    </g>
  </g>
  <g transform="translate(135,33.6)">
    <g class="primitive">
      <text text-anchor="middle" dy="0.35em">Q1</text>
    </g>
  </g>
</g>
<g font-size="5.64" id="img-4ae84c3f-21">
  <g transform="translate(99,8)">
    <g class="primitive">
      <text dy="-0em">(b)</text>
    </g>
  </g>
</g>
<g font-size="5.64" id="img-4ae84c3f-22">
  <g transform="translate(9,8)">
    <g class="primitive">
      <text dy="-0em">(a)</text>
    </g>
  </g>
</g>
</svg>
